# xmcd
#
# Track frame offsets:
# 150
# 14050
# 31307
# 52902
# 68472
# 86837
# 100629
# 117687
# 133580
# 150980
# 166892
# 180662
# 210407
#
# Disc length: 2805 seconds
#
#
# Revision: 0
# Processed by: cddbd v1.4PL0 Copyright (c) Steve Scherf et al.
# Submitted via: FreeRIP 2.00 
#
DISCID=a10af30d
DTITLE=Chris Cagle - play it loud
DYEAR=2002
DGENRE=Country
TTITLE0=My love goes on and on
TTITLE1=Laredo
TTITLE2=The safe side
TTITLE3=Country by the grace of god
TTITLE4=Ton of love
TTITLE5=Play it loud
TTITLE6=Are you ever gonna love me
TTITLE7=Who needs the whiskey
TTITLE8=The love between a man and a woman
TTITLE9=Lovin' you Lovin' me
TTITLE10=Rock the boat
TTITLE11=I breathe in I breath out
TTITLE12=bonus track
EXTD=
EXTT0=
EXTT1=
EXTT2=
EXTT3=
EXTT4=
EXTT5=
EXTT6=
EXTT7=
EXTT8=
EXTT9=
EXTT10=
EXTT11=
EXTT12=
PLAYORDER=
